<?xml version="1.0" encoding="iso-8859-1"?>
<!-- Generator: Adobe Illustrator 17.1.0, SVG Export Plug-In . SVG Version: 6.00 Build 0)  -->
<!DOCTYPE svg PUBLIC "-//W3C//DTD SVG 1.1//EN" "http://www.w3.org/Graphics/SVG/1.1/DTD/svg11.dtd">
<svg version="1.1" id="Capa_1" xmlns="http://www.w3.org/2000/svg" xmlns:xlink="http://www.w3.org/1999/xlink" x="0px" y="0px"
	 viewBox="0 0 470 470" style="enable-background:new 0 0 470 470;" xml:space="preserve">
<g>
	<path d="M235,132.434c-4.142,0-7.5,3.358-7.5,7.5s3.358,7.5,7.5,7.5c76.525,0,138.783,62.258,138.783,138.783S311.525,425,235,425
		c-4.142,0-7.5,3.358-7.5,7.5s3.358,7.5,7.5,7.5c84.796,0,153.783-68.987,153.783-153.783S319.796,132.434,235,132.434z"/>
	<path d="M201.855,136.03c-23.213,5.119-45.286,15.811-63.833,30.918c-3.211,2.616-3.694,7.34-1.078,10.552
		c1.482,1.82,3.642,2.763,5.819,2.763c1.665,0,3.341-0.552,4.732-1.685c16.739-13.635,36.653-23.283,57.589-27.899
		c4.045-0.892,6.601-4.895,5.709-8.939C209.903,137.694,205.9,135.142,201.855,136.03z"/>
	<path d="M126.282,188.16c-3.213-2.617-7.936-2.134-10.552,1.078c-22.256,27.323-34.513,61.764-34.513,96.979
		c0,4.142,3.358,7.5,7.5,7.5s7.5-3.358,7.5-7.5c0-31.774,11.06-62.851,31.143-87.505C129.976,195.5,129.493,190.775,126.282,188.16z
		"/>
	<path d="M370.027,161.547c-25.85-27.98-59.325-47.004-96-54.935V91.895c3.873-3.668,6.305-8.842,6.305-14.585V50.287
		c0-4.142-3.358-7.5-7.5-7.5H260.25V25.25C260.25,11.327,248.923,0,235,0s-25.25,11.327-25.25,25.25v17.537h-12.583
		c-4.142,0-7.5,3.358-7.5,7.5V77.31c0,5.743,2.432,10.917,6.305,14.585v14.717c-36.674,7.93-70.149,26.955-96,54.935
		c-31.441,34.032-48.757,78.307-48.757,124.67C51.216,387.555,133.661,470,235,470s183.784-82.445,183.784-183.783
		C418.784,239.854,401.468,195.579,370.027,161.547z M224.75,25.25c0-5.652,4.598-10.25,10.25-10.25s10.25,4.598,10.25,10.25v17.537
		h-20.5V25.25z M204.667,57.787h60.665V77.31c0,2.818-2.292,5.111-5.111,5.111s-5.111-2.292-5.111-5.111c0-4.142-3.358-7.5-7.5-7.5
		s-7.5,3.358-7.5,7.5c0,2.818-2.293,5.111-5.111,5.111s-5.111-2.292-5.111-5.111c0-4.142-3.358-7.5-7.5-7.5s-7.5,3.358-7.5,7.5
		c0,2.818-2.292,5.111-5.111,5.111s-5.111-2.292-5.111-5.111V57.787z M235,455c-93.067,0-168.784-75.716-168.784-168.783
		c0-87.002,67.827-160.871,154.414-168.168c4.127-0.348,7.191-3.976,6.844-8.104c-0.348-4.127-3.966-7.197-8.104-6.844
		c-2.812,0.237-5.612,0.54-8.397,0.904v-6.636c4.306-0.254,8.256-1.853,11.417-4.404c3.452,2.786,7.84,4.456,12.611,4.456
		s9.159-1.67,12.611-4.456c3.161,2.551,7.111,4.15,11.417,4.404v6.636c-2.785-0.364-5.585-0.667-8.397-0.904
		c-4.126-0.35-7.755,2.716-8.104,6.844c-0.348,4.127,2.716,7.755,6.844,8.104c86.587,7.298,154.414,81.166,154.414,168.168
		C403.784,379.284,328.067,455,235,455z"/>
</g>
<g>
</g>
<g>
</g>
<g>
</g>
<g>
</g>
<g>
</g>
<g>
</g>
<g>
</g>
<g>
</g>
<g>
</g>
<g>
</g>
<g>
</g>
<g>
</g>
<g>
</g>
<g>
</g>
<g>
</g>
</svg>
